HIERARCHY
ROOT Hips
{
	OFFSET 0.00000 0.00000 0.00000
	CHANNELS 6 Xposition Yposition Zposition Zrotation Yrotation Xrotation 
	JOINT LHipJoint
	{
		OFFSET 0 0 0
		CHANNELS 3 Zrotation Yrotation Xrotation
		JOINT LeftHip
		{
			OFFSET 1.62964 -1.40469 0.78906
			CHANNELS 3 Zrotation Yrotation Xrotation
			JOINT LeftKnee
			{
				OFFSET 2.29640 -6.30932 0.00000
				CHANNELS 3 Zrotation Yrotation Xrotation
				JOINT LeftAnkle
				{
					OFFSET 2.29451 -6.30412 0.00000
					CHANNELS 3 Zrotation Yrotation Xrotation
					JOINT LeftToe
					{
						OFFSET 0.03611 -0.09921 1.56387
						CHANNELS 3 Zrotation Yrotation Xrotation
						End Site
						{
							OFFSET 0.00000 -0.00000 0.80291
						}
					}
				}
			}
		}
	}
	JOINT RHipJoint
	{
		OFFSET 0 0 0
		CHANNELS 3 Zrotation Yrotation Xrotation
		JOINT RightHip
		{
			OFFSET -1.73712 -1.40469 0.78906
			CHANNELS 3 Zrotation Yrotation Xrotation
			JOINT RightKnee
			{
				OFFSET -2.28137 -6.26801 0.00000
				CHANNELS 3 Zrotation Yrotation Xrotation
				JOINT RightAnkle
				{
					OFFSET -2.28681 -6.28298 0.00000
					CHANNELS 3 Zrotation Yrotation Xrotation
					JOINT RightToe
					{
						OFFSET -0.15927 -0.43759 1.61103
						CHANNELS 3 Zrotation Yrotation Xrotation
						End Site
						{
							OFFSET -0.00000 -0.00000 0.84630
						}
					}
				}
			}
		}
	}
	JOINT lowerback
	{
		OFFSET 0 0 0
		CHANNELS 3 Zrotation Yrotation Xrotation
		JOINT Chest
		{
			OFFSET -0.04227 2.04338 -0.00225
			CHANNELS 3 Zrotation Yrotation Xrotation
			JOINT Chest2
			{
				OFFSET -0.02148 2.04482 -0.04273
				CHANNELS 3 Zrotation Yrotation Xrotation
				JOINT lowerneck
				{
					OFFSET 0 0 0
					CHANNELS 3 Zrotation Yrotation Xrotation
					JOINT Neck
					{
						OFFSET 0.09180 1.44629 0.19359
						CHANNELS 3 Zrotation Yrotation Xrotation
						JOINT Head
						{
							OFFSET 0.00887 1.40645 0.14750
							CHANNELS 3 Zrotation Yrotation Xrotation
							End Site
							{
								OFFSET -0.00669 1.50671 0.03707
							}
						}
					}
				}
				JOINT LeftCollar
				{
					OFFSET 0 0 0
					CHANNELS 3 Zrotation Yrotation Xrotation
					JOINT LeftShoulder
					{
						OFFSET 2.17674 1.86763 -0.06520
CHANNELS 3 Zrotation Xrotation Yrotation
						JOINT LeftElbow
						{
OFFSET 0 -4.657760 0.000000
CHANNELS 3 Zrotation Xrotation Yrotation
							JOINT LeftWrist
							{
OFFSET 0 -3.555390 0.000000
CHANNELS 3 Zrotation Xrotation Yrotation
								JOINT lhand
								{
									OFFSET 0 0 0
CHANNELS 3 Zrotation Xrotation Yrotation
									JOINT LFingers
									{
OFFSET 0 -0.707260 0.000000
CHANNELS 3 Zrotation Xrotation Yrotation
										End Site
										{
OFFSET 0 -0.570220 0.000000
										}
									}
								}
								JOINT LThumb
								{
OFFSET 0 0.000000 0.000000
CHANNELS 3 Zrotation Xrotation Yrotation
									End Site
									{
OFFSET 0 -0.578920 0.578920
									}
								}
							}
						}
					}
				}
				JOINT RightCollar
				{
					OFFSET 0 0 0
					CHANNELS 3 Zrotation Yrotation Xrotation
					JOINT RightShoulder
					{
						OFFSET -2.80694 1.55459 -0.32496
CHANNELS 3 Zrotation Xrotation Yrotation
						JOINT RightElbow
						{
OFFSET 0 -4.719250 -0.000000
CHANNELS 3 Zrotation Xrotation Yrotation
							JOINT RightWrist
							{
OFFSET 0 -3.569900 0.000000
CHANNELS 3 Zrotation Xrotation Yrotation
								JOINT rhand
								{
									OFFSET 0 0 0
CHANNELS 3 Zrotation Xrotation Yrotation
									JOINT RFingers
									{
OFFSET 0 -0.507760 0.000000
CHANNELS 3 Zrotation Xrotation Yrotation
										End Site
										{
OFFSET 0 -0.409370 0.000000
										}
									}
								}
								JOINT RThumb
								{
OFFSET 0 0.000000 0.000000
CHANNELS 3 Zrotation Xrotation Yrotation
									End Site
									{
OFFSET 0 -0.415620 0.415620
									}
								}
							}
						}
					}
				}
			}
		}
	}
}
MOTION
Frames: 9
Frame Time: .0083333
7.0724 16.2914 31.5436 177.7970 -1.3241 -154.8160 0.0000 0.0000 0.0000 -19.6748 -17.1384 -18.9868 0.2525 3.2334 8.9293 0.1691 -4.1786 -7.4355 2.2643 -9.3961 -27.0425 0.0000 0.0000 0.0000 19.5219 12.0237 -18.7472 -0.0797 -1.8207 5.0104 -1.1024 -0.5335 -20.0471 -2.1662 9.2039 -26.4353 -7.3809 -1.2102 -28.6370 -0.8493 0.3042 -1.1465 3.1480 -0.5645 13.8126 -1.5786 -3.4284 -5.1346 6.5745 -5.2545 7.5831 2.2061 -2.4830 3.6408 0.0000 0.0000 0.0000 4.1386 1.3125 -10.7992 9.2679 -15.5863 1.2711 21.804 2.9276 12.9151 0.0 0.0 0.0 -7.1250 0.0 0.0 -3.7934 16.1268 -2.5962 0.0000 0.0000 0.0000 2.9668 6.6637 6.9404 -19.5722 -30.1235 -5.315 -8.483 3.522 51.9569 0.0 0.0 0.0 7.1250 0.0 -0.0 64.8549 74.0585 -49.1062
7.0736 16.2922 31.5396 177.7940 -1.3615 -154.8940 0.0000 0.0000 0.0000 -19.7276 -16.9290 -18.9498 0.2524 3.2329 8.9278 0.1638 -4.2764 -7.3445 2.4775 -9.7969 -28.3214 0.0000 0.0000 0.0000 19.5511 11.9526 -18.6487 -0.0797 -1.8210 5.0112 -1.1122 -0.4262 -20.0964 -2.0913 9.0538 -25.9638 -7.4272 -1.0644 -28.5599 -0.9967 0.5366 -1.0816 3.1027 -0.4575 13.8275 -1.1535 -3.6143 -5.2965 6.4103 -5.5164 7.4832 2.0567 -2.6040 3.6264 0.0000 -0.0000 0.0000 4.4866 1.0587 -10.8841 9.1816 -15.4493 1.248 21.6303 2.9406 13.2712 0.0 0.0 0.0 -7.1250 0.0 0.0 -3.9286 15.7652 -2.7199 0.0000 -0.0000 0.0000 3.3303 6.6035 6.2315 -19.3662 -29.8712 -5.212 -8.9167 3.9941 51.646 0.0 0.0 0.0 7.1250 0.0 -0.0 63.5790 74.1058 -48.0244
7.0743 16.2961 31.5309 177.8240 -1.3631 -155.1390 0.0000 0.0000 0.0000 -19.7900 -16.7020 -18.6502 0.2478 3.2031 8.8446 0.1627 -4.2926 -7.3270 2.6225 -10.0574 -29.1627 0.0000 0.0000 0.0000 19.6564 11.6610 -18.3753 -0.0770 -1.7896 4.9247 -1.1192 -0.1600 -20.0638 -2.0182 8.9040 -25.4953 -7.4335 -1.1669 -28.3824 -0.8464 0.3826 -1.0615 3.2141 -0.5240 13.7848 -1.5721 -3.4905 -4.9337 6.6553 -5.3219 7.2738 2.2302 -2.5211 3.5004 -0.0000 -0.0000 0.0000 4.2237 1.2023 -10.4075 9.1950 -15.4707 1.2516 21.6162 3.071 13.3055 0.0 0.0 0.0 -7.1250 0.0 0.0 -3.9397 15.7302 -2.7306 -0.0000 -0.0000 0.0000 3.004 6.7688 6.322 -19.1406 -29.5931 -5.1001 -9.2816 4.4141 50.9737 0.0 0.0 0.0 7.1250 0.0 -0.0 61.1639 73.9763 -45.7642
7.0766 16.2986 31.5272 177.8560 -1.4261 -155.3050 0.0000 0.0000 0.0000 -19.7665 -16.6829 -18.4168 0.2445 3.1817 8.7851 0.1628 -4.3402 -7.3378 2.4926 -9.8244 -28.4098 0.0000 0.0000 0.0000 19.7609 11.5085 -18.1662 -0.0747 -1.7635 4.8526 -1.1130 -0.1975 -20.0208 -2.0763 9.0232 -25.8680 -7.4356 -1.0642 -28.1991 -0.9424 0.5298 -1.0106 3.1691 -0.4500 13.7437 -1.4854 -3.4488 -5.0498 6.8822 -5.3133 7.3670 2.2910 -2.5078 3.5616 -0.0000 0.0000 0.0000 4.4925 1.1376 -10.8351 9.2057 -15.4877 1.2545 21.6046 3.0088 13.168 0.0 0.0 0.0 -7.1250 0.0 0.0 -3.9418 15.8777 -2.7195 -0.0000 0.0000 0.0000 3.2923 6.7024 5.6054 -18.8252 -29.201 -4.9453 -9.5087 5.1211 51.0018 0.0 0.0 0.0 7.1250 0.0 -0.0 61.1099 74.0727 -45.8208
7.0799 16.2975 31.5306 177.8310 -1.4871 -155.2310 0.0000 0.0000 0.0000 -19.7435 -16.6951 -18.5550 0.2472 3.1996 8.8351 0.1617 -4.5064 -7.3476 2.3537 -9.5668 -27.5850 0.0000 0.0000 0.0000 19.7449 11.5446 -18.2453 -0.0749 -1.7655 4.8580 -1.1090 -0.3296 -20.0325 -2.1342 9.1402 -26.2349 -7.5190 -1.2644 -28.1954 -0.7396 0.2526 -1.0992 3.3293 -0.5838 13.6668 -1.8781 -3.4509 -4.7302 6.9895 -5.2661 7.0866 2.4046 -2.4994 3.4191 0.0000 -0.0000 0.0000 4.1436 1.36 -10.4196 9.2687 -15.5876 1.2714 21.4699 3.015 13.1479 0.0 0.0 0.0 -7.1250 0.0 0.0 -4.0337 15.9126 -2.7802 0.0000 -0.0000 0.0000 2.8975 6.8575 5.863 -18.5567 -28.8641 -4.815 -9.8784 5.646 51.3886 0.0 0.0 0.0 7.1250 0.0 -0.0 62.1533 74.3669 -47.0501
7.0808 16.2960 31.5331 177.8210 -1.4989 -155.1280 0.0000 0.0000 0.0000 -19.7241 -16.7165 -18.6747 0.2464 3.1941 8.8196 0.1605 -4.5708 -7.3367 2.3238 -9.5102 -27.4048 0.0000 0.0000 0.0000 19.7154 11.6138 -18.3678 -0.0758 -1.7766 4.8885 -1.1119 -0.3552 -20.0672 -2.1249 9.1215 -26.1761 -7.5588 -1.2883 -28.2403 -0.7023 0.2199 -1.1596 3.3774 -0.6029 13.6204 -2.0208 -3.4375 -4.9106 6.9983 -5.2630 7.4044 2.4335 -2.4941 3.5702 -0.0000 -0.0000 0.0000 4.0928 1.4306 -10.3447 9.3038 -15.6433 1.2808 21.4032 3.0201 13.2002 0.0 0.0 0.0 -7.1250 0.0 0.0 -4.0819 15.8637 -2.8179 -0.0000 -0.0000 0.0000 2.8508 6.9723 5.7345 -18.3753 -28.635 -4.7277 -10.3208 5.8728 51.4591 0.0 0.0 0.0 7.1250 0.0 -0.0 62.1259 74.561 -47.2346
7.0782 16.2961 31.5336 177.8600 -1.4840 -155.0190 0.0000 0.0000 0.0000 -19.6731 -16.6743 -18.7881 0.2418 3.1644 8.7368 0.1544 -4.6021 -7.2217 2.2640 -9.3956 -27.0409 0.0000 0.0000 0.0000 19.7346 11.5967 -18.5472 -0.0775 -1.7955 4.9407 -1.1124 -0.2480 -20.0336 -2.1495 9.1708 -26.3309 -7.4787 -1.2010 -28.3444 -0.7606 0.3187 -1.1736 3.3064 -0.5553 13.6431 -1.9028 -3.4824 -4.7205 7.1032 -5.3195 7.0673 2.4454 -2.5248 3.4192 -0.0000 -0.0000 0.0000 4.1996 1.3488 -10.3341 9.2996 -15.6366 1.2797 21.5178 3.2284 13.1687 0.0 0.0 0.0 -7.1250 0.0 0.0 -4.0016 15.8857 -2.7603 -0.0000 -0.0000 0.0000 3.0141 6.941 5.2777 -18.1546 -28.3547 -4.6224 -10.6071 6.0927 51.6714 0.0 0.0 0.0 7.1250 0.0 -0.0 62.6841 74.7505 -47.931
7.0747 16.2960 31.5343 177.9090 -1.4510 -154.8830 0.0000 0.0000 0.0000 -19.5952 -16.6893 -18.9578 0.2410 3.1594 8.7228 0.1503 -4.5692 -7.1307 2.1297 -9.1313 -26.2068 0.0000 0.0000 0.0000 19.7514 11.5243 -18.8146 -0.0811 -1.8371 5.0556 -1.1179 -0.0513 -20.0143 -2.1659 9.2035 -26.4340 -7.3720 -1.0995 -28.4946 -0.8324 0.4357 -1.1667 3.2133 -0.4990 13.7102 -1.7756 -3.5470 -4.8432 7.0756 -5.4219 7.1460 2.4063 -2.5701 3.4696 -0.0000 0.0000 0.0000 4.3957 1.2638 -10.7519 9.3363 -15.6947 1.2896 21.405 3.0398 13.1618 0.0 0.0 0.0 -7.1250 0.0 0.0 -4.0790 15.9044 -2.8123 -0.0000 0.0000 0.0000 3.2122 6.8125 4.7244 -17.8755 -27.9975 -4.4907 -10.9596 6.7068 52.0474 0.0 0.0 0.0 7.1250 0.0 -0.0 63.8045 75.0218 -49.2193
7.0771 16.2945 31.5387 177.9420 -1.4992 -154.7870 0.0000 0.0000 0.0000 -19.4931 -16.7476 -19.1320 0.2464 3.1939 8.8191 0.1511 -4.5865 -7.1512 2.1992 -9.2692 -26.6411 0.0000 0.0000 0.0000 19.7953 11.6207 -18.9378 -0.0842 -1.8719 5.1518 -1.1296 -0.0824 -20.1293 -2.1329 9.1376 -26.2267 -7.3518 -1.1544 -28.5435 -0.7731 0.3454 -1.2055 3.2317 -0.5410 13.6978 -1.6247 -3.5868 -4.6899 6.7601 -5.4424 7.0513 2.2717 -2.5875 3.3886 0.0000 0.0000 0.0000 4.3774 1.3653 -10.9753 9.4429 -15.8635 1.3186 21.437 2.5555 13.2503 0.0 0.0 0.0 -7.1250 0.0 0.0 -4.0607 15.8071 -2.8082 0.0000 0.0000 0.0000 3.1478 6.8073 4.5198 -17.5856 -27.6233 -4.3554 -11.3289 7.3454 52.3427 0.0 0.0 0.0 7.1250 0.0 -0.0 64.6733 75.2647 -50.2602
